<svg width="82" height="63" viewBox="0 0 82 63" fill="none" xmlns="http://www.w3.org/2000/svg">
<g clip-path="url(#clip0)">
<path d="M53.2054 11.8787C53.1988 8.91201 51.9111 6.06852 49.6242 3.97051C47.3372 1.87249 44.2373 0.690818 41.0027 0.684082V0.684082C37.7671 0.689471 34.6658 1.87055 32.3776 3.96871C30.0895 6.06687 28.801 8.91113 28.7944 11.8787V28.2385C28.7944 28.2385 53.2026 25.7452 53.2054 11.8813V11.8787Z" fill="#2196F3"/>
<path d="M4.21953 28.2385H4.21675C1.8879 28.2385 0 29.9701 0 32.106V32.1086C0 34.2445 1.8879 35.9761 4.21675 35.9761H4.21953C6.54838 35.9761 8.43628 34.2445 8.43628 32.1086V32.106C8.43628 29.9701 6.54838 28.2385 4.21953 28.2385Z" fill="#2196F3"/>
<path d="M0 47.3568C0.00586666 49.4211 0.902337 51.3993 2.49352 52.8591C4.0847 54.319 6.24122 55.1419 8.49185 55.1479C10.742 55.1419 12.8981 54.3194 14.4892 52.86C16.0803 51.4007 16.9771 49.4232 16.9837 47.3594V35.9761C16.9837 35.9761 0 37.7123 0 47.3568ZM8.49185 49.3964C8.05204 49.3964 7.62211 49.2768 7.25642 49.0527C6.89073 48.8286 6.60571 48.51 6.4374 48.1373C6.26909 47.7647 6.22505 47.3546 6.31085 46.9589C6.39666 46.5633 6.60845 46.1999 6.91944 45.9146C7.23043 45.6294 7.62666 45.4352 8.05802 45.3565C8.48938 45.2778 8.9365 45.3181 9.34284 45.4725C9.74917 45.6269 10.0965 45.8883 10.3408 46.2237C10.5852 46.5591 10.7156 46.9534 10.7156 47.3568C10.7167 47.6253 10.66 47.8913 10.5487 48.1397C10.4374 48.388 10.2738 48.6138 10.0672 48.804C9.86062 48.9942 9.6151 49.1451 9.34477 49.2481C9.07443 49.351 8.78458 49.404 8.49185 49.404V49.3964Z" fill="#2196F3"/>
<path d="M14.3438 59.4048H12.6562V61.1479H11.7773V56.8823H14.5547V57.5942H12.6562V58.6958H14.3438V59.4048ZM18.5684 59.1118C18.5684 59.5317 18.4941 59.8999 18.3457 60.2163C18.1973 60.5327 17.9844 60.7769 17.707 60.9487C17.4316 61.1206 17.1152 61.2065 16.7578 61.2065C16.4043 61.2065 16.0889 61.1216 15.8115 60.9517C15.5342 60.7817 15.3193 60.5396 15.167 60.2251C15.0146 59.9087 14.9375 59.5454 14.9355 59.1353V58.9243C14.9355 58.5044 15.0107 58.1353 15.1611 57.8169C15.3135 57.4966 15.5273 57.2515 15.8027 57.0815C16.0801 56.9097 16.3965 56.8237 16.752 56.8237C17.1074 56.8237 17.4229 56.9097 17.6982 57.0815C17.9756 57.2515 18.1895 57.4966 18.3398 57.8169C18.4922 58.1353 18.5684 58.5034 18.5684 58.9214V59.1118ZM17.6777 58.9185C17.6777 58.4712 17.5977 58.1313 17.4375 57.8989C17.2773 57.6665 17.0488 57.5503 16.752 57.5503C16.457 57.5503 16.2295 57.6655 16.0693 57.896C15.9092 58.1245 15.8281 58.4604 15.8262 58.9038V59.1118C15.8262 59.5474 15.9062 59.8853 16.0664 60.1255C16.2266 60.3657 16.457 60.4858 16.7578 60.4858C17.0527 60.4858 17.2793 60.3706 17.4375 60.1401C17.5957 59.9077 17.6758 59.5698 17.6777 59.1265V58.9185ZM21.4189 60.0288C21.4189 59.8628 21.3604 59.7358 21.2432 59.6479C21.126 59.5581 20.915 59.4644 20.6104 59.3667C20.3057 59.2671 20.0645 59.1694 19.8867 59.0737C19.4023 58.812 19.1602 58.4595 19.1602 58.0161C19.1602 57.7856 19.2246 57.5806 19.3535 57.4009C19.4844 57.2192 19.6709 57.0776 19.9131 56.9761C20.1572 56.8745 20.4307 56.8237 20.7334 56.8237C21.0381 56.8237 21.3096 56.8794 21.5479 56.9907C21.7861 57.1001 21.9707 57.2554 22.1016 57.4565C22.2344 57.6577 22.3008 57.8862 22.3008 58.1421H21.4219C21.4219 57.9468 21.3604 57.7954 21.2373 57.688C21.1143 57.5786 20.9414 57.5239 20.7188 57.5239C20.5039 57.5239 20.3369 57.5698 20.2178 57.6616C20.0986 57.7515 20.0391 57.8706 20.0391 58.019C20.0391 58.1577 20.1084 58.2739 20.2471 58.3677C20.3877 58.4614 20.5938 58.5493 20.8652 58.6313C21.3652 58.7817 21.7295 58.9683 21.958 59.1909C22.1865 59.4136 22.3008 59.6909 22.3008 60.0229C22.3008 60.3921 22.1611 60.6821 21.8818 60.8931C21.6025 61.1021 21.2266 61.2065 20.7539 61.2065C20.4258 61.2065 20.127 61.147 19.8574 61.0278C19.5879 60.9067 19.3818 60.7417 19.2393 60.5327C19.0986 60.3237 19.0283 60.0815 19.0283 59.8062H19.9102C19.9102 60.2769 20.1914 60.5122 20.7539 60.5122C20.9629 60.5122 21.126 60.4702 21.2432 60.3862C21.3604 60.3003 21.4189 60.1812 21.4189 60.0288ZM26.1094 57.5942H24.8027V61.1479H23.9238V57.5942H22.6348V56.8823H26.1094V57.5942ZM29.1797 59.2993H27.4922V60.4419H29.4727V61.1479H26.6133V56.8823H29.4668V57.5942H27.4922V58.6108H29.1797V59.2993ZM31.5674 59.5864H30.8672V61.1479H29.9883V56.8823H31.5732C32.0771 56.8823 32.4658 56.9946 32.7393 57.2192C33.0127 57.4438 33.1494 57.7612 33.1494 58.1714C33.1494 58.4624 33.0859 58.7056 32.959 58.9009C32.834 59.0942 32.6436 59.2485 32.3877 59.3638L33.3105 61.1069V61.1479H32.3672L31.5674 59.5864ZM30.8672 58.8745H31.5762C31.7969 58.8745 31.9678 58.8188 32.0889 58.7075C32.21 58.5942 32.2705 58.439 32.2705 58.2417C32.2705 58.0405 32.2129 57.8823 32.0977 57.7671C31.9844 57.6519 31.8096 57.5942 31.5732 57.5942H30.8672V58.8745ZM36.1934 59.645V61.1479H35.3145V56.8823H36.9785C37.2988 56.8823 37.5801 56.9409 37.8223 57.0581C38.0664 57.1753 38.2539 57.3423 38.3848 57.5591C38.5156 57.7739 38.5811 58.019 38.5811 58.2944C38.5811 58.7124 38.4375 59.0425 38.1504 59.2847C37.8652 59.5249 37.4697 59.645 36.9639 59.645H36.1934ZM36.1934 58.9331H36.9785C37.2109 58.9331 37.3877 58.8784 37.5088 58.769C37.6318 58.6597 37.6934 58.5034 37.6934 58.3003C37.6934 58.0913 37.6318 57.9224 37.5088 57.7935C37.3857 57.6646 37.2158 57.5981 36.999 57.5942H36.1934V58.9331ZM41.7539 59.2993H40.0664V60.4419H42.0469V61.1479H39.1875V56.8823H42.041V57.5942H40.0664V58.6108H41.7539V59.2993ZM45.832 57.5942H44.5254V61.1479H43.6465V57.5942H42.3574V56.8823H45.832V57.5942ZM48.9023 59.2993H47.2148V60.4419H49.1953V61.1479H46.3359V56.8823H49.1895V57.5942H47.2148V58.6108H48.9023V59.2993ZM51.29 59.5864H50.5898V61.1479H49.7109V56.8823H51.2959C51.7998 56.8823 52.1885 56.9946 52.4619 57.2192C52.7354 57.4438 52.8721 57.7612 52.8721 58.1714C52.8721 58.4624 52.8086 58.7056 52.6816 58.9009C52.5566 59.0942 52.3662 59.2485 52.1104 59.3638L53.0332 61.1069V61.1479H52.0898L51.29 59.5864ZM50.5898 58.8745H51.2988C51.5195 58.8745 51.6904 58.8188 51.8115 58.7075C51.9326 58.5942 51.9932 58.439 51.9932 58.2417C51.9932 58.0405 51.9355 57.8823 51.8203 57.7671C51.707 57.6519 51.5322 57.5942 51.2959 57.5942H50.5898V58.8745ZM55.7549 60.0288C55.7549 59.8628 55.6963 59.7358 55.5791 59.6479C55.4619 59.5581 55.251 59.4644 54.9463 59.3667C54.6416 59.2671 54.4004 59.1694 54.2227 59.0737C53.7383 58.812 53.4961 58.4595 53.4961 58.0161C53.4961 57.7856 53.5605 57.5806 53.6895 57.4009C53.8203 57.2192 54.0068 57.0776 54.249 56.9761C54.4932 56.8745 54.7666 56.8237 55.0693 56.8237C55.374 56.8237 55.6455 56.8794 55.8838 56.9907C56.1221 57.1001 56.3066 57.2554 56.4375 57.4565C56.5703 57.6577 56.6367 57.8862 56.6367 58.1421H55.7578C55.7578 57.9468 55.6963 57.7954 55.5732 57.688C55.4502 57.5786 55.2773 57.5239 55.0547 57.5239C54.8398 57.5239 54.6729 57.5698 54.5537 57.6616C54.4346 57.7515 54.375 57.8706 54.375 58.019C54.375 58.1577 54.4443 58.2739 54.583 58.3677C54.7236 58.4614 54.9297 58.5493 55.2012 58.6313C55.7012 58.7817 56.0654 58.9683 56.2939 59.1909C56.5225 59.4136 56.6367 59.6909 56.6367 60.0229C56.6367 60.3921 56.4971 60.6821 56.2178 60.8931C55.9385 61.1021 55.5625 61.2065 55.0898 61.2065C54.7617 61.2065 54.4629 61.147 54.1934 61.0278C53.9238 60.9067 53.7178 60.7417 53.5752 60.5327C53.4346 60.3237 53.3643 60.0815 53.3643 59.8062H54.2461C54.2461 60.2769 54.5273 60.5122 55.0898 60.5122C55.2988 60.5122 55.4619 60.4702 55.5791 60.3862C55.6963 60.3003 55.7549 60.1812 55.7549 60.0288Z" fill="#2196F3"/>
</g>
<defs>
<clipPath id="clip0">
<rect y="0.684082" width="82" height="61.3472" fill="white"/>
</clipPath>
</defs>
</svg>
